<svg version="1.1" viewBox="0.0 0.0 369.95538057742783 361.6509186351706" fill="none" stroke="none" stroke-linecap="square" stroke-miterlimit="10" xmlns:xlink="http://www.w3.org/1999/xlink" xmlns="http://www.w3.org/2000/svg"><clipPath id="p.0"><path d="m0 0l369.95538 0l0 361.6509l-369.95538 0l0 -361.6509z" clip-rule="nonzero"/></clipPath><g clip-path="url(#p.0)"><path fill="#000000" fill-opacity="0.0" d="m0 0l369.95538 0l0 361.6509l-369.95538 0z" fill-rule="evenodd"/><path fill="#000000" fill-opacity="0.0" d="m19.341208 154.61154l0 0c0 -78.87669 63.9422 -142.8189 142.81891 -142.8189l0 0c37.877914 0 74.20447 15.046948 100.988205 41.830685c26.783752 26.783737 41.83069 63.110283 41.83069 100.988205l0 0c0 78.87671 -63.9422 142.81891 -142.8189 142.81891l0 0c-78.8767 0 -142.81891 -63.9422 -142.81891 -142.81891z" fill-rule="evenodd"/><path stroke="#000000" stroke-width="24.0" stroke-linejoin="round" stroke-linecap="butt" d="m19.341208 154.61154l0 0c0 -78.87669 63.9422 -142.8189 142.81891 -142.8189l0 0c37.877914 0 74.20447 15.046948 100.988205 41.830685c26.783752 26.783737 41.83069 63.110283 41.83069 100.988205l0 0c0 78.87671 -63.9422 142.81891 -142.8189 142.81891l0 0c-78.8767 0 -142.81891 -63.9422 -142.81891 -142.81891z" fill-rule="evenodd"/><path fill="#000000" fill-opacity="0.0" d="m263.14832 255.59976l88.81891 88.81891" fill-rule="evenodd"/><path stroke="#000000" stroke-width="24.0" stroke-linejoin="round" stroke-linecap="butt" d="m263.14832 255.59976l88.81891 88.81891" fill-rule="evenodd"/></g></svg>